   0
SECTION
   2
ENTITIES
   0
LINE
8
0
  10
   0.000
  20
   0.000
  11
   0.082
  21
   0.596
   0
LINE
8
0
  10
   0.082
  20
   0.596
  11
   0.326
  21
   1.178
   0
LINE
8
0
  10
   0.326
  20
   1.178
  11
   0.734
  21
   1.748
   0
LINE
8
0
  10
   0.734
  20
   1.748
  11
   1.302
  21
   2.303
   0
LINE
8
0
  10
   1.302
  20
   2.303
  11
   2.031
  21
   2.842
   0
LINE
8
0
  10
   2.031
  20
   2.842
  11
   2.919
  21
   3.365
   0
LINE
8
0
  10
   2.919
  20
   3.365
  11
   3.963
  21
   3.870
   0
LINE
8
0
  10
   3.963
  20
   3.870
  11
   5.160
  21
   4.356
   0
LINE
8
0
  10
   5.160
  20
   4.356
  11
   6.509
  21
   4.820
   0
LINE
8
0
  10
   6.509
  20
   4.820
  11
   8.007
  21
   5.262
   0
LINE
8
0
  10
   8.007
  20
   5.262
  11
   9.648
  21
   5.680
   0
LINE
8
0
  10
   9.648
  20
   5.680
  11
  11.431
  21
   6.073
   0
LINE
8
0
  10
  11.431
  20
   6.073
  11
  13.350
  21
   6.438
   0
LINE
8
0
  10
  13.350
  20
   6.438
  11
  15.401
  21
   6.774
   0
LINE
8
0
  10
  15.401
  20
   6.774
  11
  17.579
  21
   7.081
   0
LINE
8
0
  10
  17.579
  20
   7.081
  11
  19.880
  21
   7.357
   0
LINE
8
0
  10
  19.880
  20
   7.357
  11
  22.297
  21
   7.601
   0
LINE
8
0
  10
  22.297
  20
   7.601
  11
  24.826
  21
   7.813
   0
LINE
8
0
  10
  24.826
  20
   7.813
  11
  27.459
  21
   7.992
   0
LINE
8
0
  10
  27.459
  20
   7.992
  11
  30.192
  21
   8.137
   0
LINE
8
0
  10
  30.192
  20
   8.137
  11
  33.018
  21
   8.249
   0
LINE
8
0
  10
  33.018
  20
   8.249
  11
  35.930
  21
   8.329
   0
LINE
8
0
  10
  35.930
  20
   8.329
  11
  38.921
  21
   8.375
   0
LINE
8
0
  10
  38.921
  20
   8.375
  11
  41.984
  21
   8.390
   0
LINE
8
0
  10
  41.984
  20
   8.390
  11
  45.113
  21
   8.374
   0
LINE
8
0
  10
  45.113
  20
   8.374
  11
  48.300
  21
   8.329
   0
LINE
8
0
  10
  48.300
  20
   8.329
  11
  51.537
  21
   8.254
   0
LINE
8
0
  10
  51.537
  20
   8.254
  11
  54.817
  21
   8.152
   0
LINE
8
0
  10
  54.817
  20
   8.152
  11
  58.132
  21
   8.025
   0
LINE
8
0
  10
  58.132
  20
   8.025
  11
  61.474
  21
   7.873
   0
LINE
8
0
  10
  61.474
  20
   7.873
  11
  64.837
  21
   7.700
   0
LINE
8
0
  10
  64.837
  20
   7.700
  11
  68.211
  21
   7.505
   0
LINE
8
0
  10
  68.211
  20
   7.505
  11
  71.589
  21
   7.292
   0
LINE
8
0
  10
  71.589
  20
   7.292
  11
  74.963
  21
   7.062
   0
LINE
8
0
  10
  74.963
  20
   7.062
  11
  78.326
  21
   6.817
   0
LINE
8
0
  10
  78.326
  20
   6.817
  11
  81.668
  21
   6.558
   0
LINE
8
0
  10
  81.668
  20
   6.558
  11
  84.983
  21
   6.288
   0
LINE
8
0
  10
  84.983
  20
   6.288
  11
  88.263
  21
   6.008
   0
LINE
8
0
  10
  88.263
  20
   6.008
  11
  91.500
  21
   5.720
   0
LINE
8
0
  10
  91.500
  20
   5.720
  11
  94.687
  21
   5.426
   0
LINE
8
0
  10
  94.687
  20
   5.426
  11
  97.816
  21
   5.126
   0
LINE
8
0
  10
  97.816
  20
   5.126
  11
 100.879
  21
   4.824
   0
LINE
8
0
  10
 100.879
  20
   4.824
  11
 103.870
  21
   4.520
   0
LINE
8
0
  10
 103.870
  20
   4.520
  11
 106.782
  21
   4.215
   0
LINE
8
0
  10
 106.782
  20
   4.215
  11
 109.608
  21
   3.912
   0
LINE
8
0
  10
 109.608
  20
   3.912
  11
 112.341
  21
   3.612
   0
LINE
8
0
  10
 112.341
  20
   3.612
  11
 114.974
  21
   3.315
   0
LINE
8
0
  10
 114.974
  20
   3.315
  11
 117.503
  21
   3.025
   0
LINE
8
0
  10
 117.503
  20
   3.025
  11
 119.920
  21
   2.741
   0
LINE
8
0
  10
 119.920
  20
   2.741
  11
 122.221
  21
   2.465
   0
LINE
8
0
  10
 122.221
  20
   2.465
  11
 124.399
  21
   2.200
   0
LINE
8
0
  10
 124.399
  20
   2.200
  11
 126.450
  21
   1.945
   0
LINE
8
0
  10
 126.450
  20
   1.945
  11
 128.369
  21
   1.703
   0
LINE
8
0
  10
 128.369
  20
   1.703
  11
 130.152
  21
   1.475
   0
LINE
8
0
  10
 130.152
  20
   1.475
  11
 131.793
  21
   1.261
   0
LINE
8
0
  10
 131.793
  20
   1.261
  11
 133.291
  21
   1.064
   0
LINE
8
0
  10
 133.291
  20
   1.064
  11
 134.640
  21
   0.884
   0
LINE
8
0
  10
 134.640
  20
   0.884
  11
 135.837
  21
   0.723
   0
LINE
8
0
  10
 135.837
  20
   0.723
  11
 136.881
  21
   0.580
   0
LINE
8
0
  10
 136.881
  20
   0.580
  11
 137.769
  21
   0.459
   0
LINE
8
0
  10
 137.769
  20
   0.459
  11
 138.498
  21
   0.358
   0
LINE
8
0
  10
 138.498
  20
   0.358
  11
 139.066
  21
   0.279
   0
LINE
8
0
  10
 139.066
  20
   0.279
  11
 139.474
  21
   0.222
   0
LINE
8
0
  10
 139.474
  20
   0.222
  11
 139.718
  21
   0.188
   0
LINE
8
0
  10
 139.718
  20
   0.188
  11
 139.800
  21
   0.176
   0
LINE
8
0
  10
 139.800
  20
   0.176
  11
   0.000
  21
   0.000
   0
LINE
8
0
  10
   0.000
  20
   0.000
  11
   0.082
  21
  -0.596
   0
LINE
8
0
  10
   0.082
  20
  -0.596
  11
   0.326
  21
  -1.178
   0
LINE
8
0
  10
   0.326
  20
  -1.178
  11
   0.734
  21
  -1.748
   0
LINE
8
0
  10
   0.734
  20
  -1.748
  11
   1.302
  21
  -2.303
   0
LINE
8
0
  10
   1.302
  20
  -2.303
  11
   2.031
  21
  -2.842
   0
LINE
8
0
  10
   2.031
  20
  -2.842
  11
   2.919
  21
  -3.365
   0
LINE
8
0
  10
   2.919
  20
  -3.365
  11
   3.963
  21
  -3.870
   0
LINE
8
0
  10
   3.963
  20
  -3.870
  11
   5.160
  21
  -4.356
   0
LINE
8
0
  10
   5.160
  20
  -4.356
  11
   6.509
  21
  -4.820
   0
LINE
8
0
  10
   6.509
  20
  -4.820
  11
   8.007
  21
  -5.262
   0
LINE
8
0
  10
   8.007
  20
  -5.262
  11
   9.648
  21
  -5.680
   0
LINE
8
0
  10
   9.648
  20
  -5.680
  11
  11.431
  21
  -6.073
   0
LINE
8
0
  10
  11.431
  20
  -6.073
  11
  13.350
  21
  -6.438
   0
LINE
8
0
  10
  13.350
  20
  -6.438
  11
  15.401
  21
  -6.774
   0
LINE
8
0
  10
  15.401
  20
  -6.774
  11
  17.579
  21
  -7.081
   0
LINE
8
0
  10
  17.579
  20
  -7.081
  11
  19.880
  21
  -7.357
   0
LINE
8
0
  10
  19.880
  20
  -7.357
  11
  22.297
  21
  -7.601
   0
LINE
8
0
  10
  22.297
  20
  -7.601
  11
  24.826
  21
  -7.813
   0
LINE
8
0
  10
  24.826
  20
  -7.813
  11
  27.459
  21
  -7.992
   0
LINE
8
0
  10
  27.459
  20
  -7.992
  11
  30.192
  21
  -8.137
   0
LINE
8
0
  10
  30.192
  20
  -8.137
  11
  33.018
  21
  -8.249
   0
LINE
8
0
  10
  33.018
  20
  -8.249
  11
  35.930
  21
  -8.329
   0
LINE
8
0
  10
  35.930
  20
  -8.329
  11
  38.921
  21
  -8.375
   0
LINE
8
0
  10
  38.921
  20
  -8.375
  11
  41.984
  21
  -8.390
   0
LINE
8
0
  10
  41.984
  20
  -8.390
  11
  45.113
  21
  -8.374
   0
LINE
8
0
  10
  45.113
  20
  -8.374
  11
  48.300
  21
  -8.329
   0
LINE
8
0
  10
  48.300
  20
  -8.329
  11
  51.537
  21
  -8.254
   0
LINE
8
0
  10
  51.537
  20
  -8.254
  11
  54.817
  21
  -8.152
   0
LINE
8
0
  10
  54.817
  20
  -8.152
  11
  58.132
  21
  -8.025
   0
LINE
8
0
  10
  58.132
  20
  -8.025
  11
  61.474
  21
  -7.873
   0
LINE
8
0
  10
  61.474
  20
  -7.873
  11
  64.837
  21
  -7.700
   0
LINE
8
0
  10
  64.837
  20
  -7.700
  11
  68.211
  21
  -7.505
   0
LINE
8
0
  10
  68.211
  20
  -7.505
  11
  71.589
  21
  -7.292
   0
LINE
8
0
  10
  71.589
  20
  -7.292
  11
  74.963
  21
  -7.062
   0
LINE
8
0
  10
  74.963
  20
  -7.062
  11
  78.326
  21
  -6.817
   0
LINE
8
0
  10
  78.326
  20
  -6.817
  11
  81.668
  21
  -6.558
   0
LINE
8
0
  10
  81.668
  20
  -6.558
  11
  84.983
  21
  -6.288
   0
LINE
8
0
  10
  84.983
  20
  -6.288
  11
  88.263
  21
  -6.008
   0
LINE
8
0
  10
  88.263
  20
  -6.008
  11
  91.500
  21
  -5.720
   0
LINE
8
0
  10
  91.500
  20
  -5.720
  11
  94.687
  21
  -5.426
   0
LINE
8
0
  10
  94.687
  20
  -5.426
  11
  97.816
  21
  -5.126
   0
LINE
8
0
  10
  97.816
  20
  -5.126
  11
 100.879
  21
  -4.824
   0
LINE
8
0
  10
 100.879
  20
  -4.824
  11
 103.870
  21
  -4.520
   0
LINE
8
0
  10
 103.870
  20
  -4.520
  11
 106.782
  21
  -4.215
   0
LINE
8
0
  10
 106.782
  20
  -4.215
  11
 109.608
  21
  -3.912
   0
LINE
8
0
  10
 109.608
  20
  -3.912
  11
 112.341
  21
  -3.612
   0
LINE
8
0
  10
 112.341
  20
  -3.612
  11
 114.974
  21
  -3.315
   0
LINE
8
0
  10
 114.974
  20
  -3.315
  11
 117.503
  21
  -3.025
   0
LINE
8
0
  10
 117.503
  20
  -3.025
  11
 119.920
  21
  -2.741
   0
LINE
8
0
  10
 119.920
  20
  -2.741
  11
 122.221
  21
  -2.465
   0
LINE
8
0
  10
 122.221
  20
  -2.465
  11
 124.399
  21
  -2.200
   0
LINE
8
0
  10
 124.399
  20
  -2.200
  11
 126.450
  21
  -1.945
   0
LINE
8
0
  10
 126.450
  20
  -1.945
  11
 128.369
  21
  -1.703
   0
LINE
8
0
  10
 128.369
  20
  -1.703
  11
 130.152
  21
  -1.475
   0
LINE
8
0
  10
 130.152
  20
  -1.475
  11
 131.793
  21
  -1.261
   0
LINE
8
0
  10
 131.793
  20
  -1.261
  11
 133.291
  21
  -1.064
   0
LINE
8
0
  10
 133.291
  20
  -1.064
  11
 134.640
  21
  -0.884
   0
LINE
8
0
  10
 134.640
  20
  -0.884
  11
 135.837
  21
  -0.723
   0
LINE
8
0
  10
 135.837
  20
  -0.723
  11
 136.881
  21
  -0.580
   0
LINE
8
0
  10
 136.881
  20
  -0.580
  11
 137.769
  21
  -0.459
   0
LINE
8
0
  10
 137.769
  20
  -0.459
  11
 138.498
  21
  -0.358
   0
LINE
8
0
  10
 138.498
  20
  -0.358
  11
 139.066
  21
  -0.279
   0
LINE
8
0
  10
 139.066
  20
  -0.279
  11
 139.474
  21
  -0.222
   0
LINE
8
0
  10
 139.474
  20
  -0.222
  11
 139.718
  21
  -0.188
   0
LINE
8
0
  10
 139.718
  20
  -0.188
  11
 139.800
  21
  -0.176
   0
ENDSEC
   0
EOF
